<mxfile host="app.diagrams.net" agent="Mozilla/5.0 (Macintosh; Intel Mac OS X 10_15_7) AppleWebKit/605.1.15 (KHTML, like Gecko) Version/18.1.1 Safari/605.1.15" version="25.0.3">
  <diagram name="Seite-1" id="af2lqmiZqBDmqGcrpT8o">
    <mxGraphModel dx="1920" dy="644" grid="1" gridSize="10" guides="1" tooltips="1" connect="1" arrows="1" fold="1" page="1" pageScale="1" pageWidth="827" pageHeight="1169" math="0" shadow="0">
      <root>
        <mxCell id="0" />
        <mxCell id="1" parent="0" />
        <mxCell id="R853mmkm-2pQnhAkUfJ0-10" value="1" style="text;html=1;align=center;verticalAlign=middle;resizable=0;points=[];autosize=1;strokeColor=none;fillColor=none;" parent="1" vertex="1">
          <mxGeometry x="97" y="204" width="30" height="30" as="geometry" />
        </mxCell>
        <mxCell id="R853mmkm-2pQnhAkUfJ0-11" value="1" style="text;html=1;align=center;verticalAlign=middle;resizable=0;points=[];autosize=1;strokeColor=none;fillColor=none;" parent="1" vertex="1">
          <mxGeometry x="260" y="408" width="30" height="30" as="geometry" />
        </mxCell>
        <mxCell id="R853mmkm-2pQnhAkUfJ0-12" value="&lt;font&gt;1&lt;/font&gt;" style="text;html=1;align=center;verticalAlign=middle;resizable=0;points=[];autosize=1;strokeColor=none;fillColor=none;" parent="1" vertex="1">
          <mxGeometry x="179" y="158" width="30" height="30" as="geometry" />
        </mxCell>
        <mxCell id="R853mmkm-2pQnhAkUfJ0-13" value="1" style="text;html=1;align=center;verticalAlign=middle;resizable=0;points=[];autosize=1;strokeColor=none;fillColor=none;" parent="1" vertex="1">
          <mxGeometry x="260" y="158" width="30" height="30" as="geometry" />
        </mxCell>
        <mxCell id="R853mmkm-2pQnhAkUfJ0-14" value="1" style="text;html=1;align=center;verticalAlign=middle;resizable=0;points=[];autosize=1;strokeColor=none;fillColor=none;" parent="1" vertex="1">
          <mxGeometry x="333" y="205" width="30" height="30" as="geometry" />
        </mxCell>
        <mxCell id="R853mmkm-2pQnhAkUfJ0-15" value="2 .. 42" style="text;html=1;align=center;verticalAlign=middle;resizable=0;points=[];autosize=1;strokeColor=none;fillColor=none;" parent="1" vertex="1">
          <mxGeometry x="302" y="345" width="60" height="30" as="geometry" />
        </mxCell>
        <mxCell id="R853mmkm-2pQnhAkUfJ0-16" value="1" style="text;html=1;align=center;verticalAlign=middle;resizable=0;points=[];autosize=1;strokeColor=none;fillColor=none;" parent="1" vertex="1">
          <mxGeometry x="375" y="427" width="30" height="30" as="geometry" />
        </mxCell>
        <mxCell id="R853mmkm-2pQnhAkUfJ0-17" value="1" style="text;html=1;align=center;verticalAlign=middle;resizable=0;points=[];autosize=1;strokeColor=none;fillColor=none;" parent="1" vertex="1">
          <mxGeometry x="375" y="565" width="30" height="30" as="geometry" />
        </mxCell>
        <mxCell id="R853mmkm-2pQnhAkUfJ0-19" value="4" style="text;html=1;align=center;verticalAlign=middle;resizable=0;points=[];autosize=1;strokeColor=none;fillColor=none;" parent="1" vertex="1">
          <mxGeometry x="116" y="564" width="30" height="30" as="geometry" />
        </mxCell>
        <mxCell id="R853mmkm-2pQnhAkUfJ0-29" value="1 .. 2" style="text;html=1;align=center;verticalAlign=middle;resizable=0;points=[];autosize=1;strokeColor=none;fillColor=none;" parent="1" vertex="1">
          <mxGeometry x="313" y="427" width="50" height="30" as="geometry" />
        </mxCell>
        <mxCell id="uCOVIubWzw-Tb1bmU5YF-58" value="Arduino" style="swimlane;fontStyle=0;childLayout=stackLayout;horizontal=1;startSize=30;horizontalStack=0;resizeParent=1;resizeParentMax=0;resizeLast=0;collapsible=1;marginBottom=0;whiteSpace=wrap;html=1;direction=east;rotation=0;container=0;" parent="1" vertex="1">
          <mxGeometry x="-598" y="427" width="140" height="120" as="geometry" />
        </mxCell>
        <mxCell id="uCOVIubWzw-Tb1bmU5YF-62" value="Aktoren" style="swimlane;fontStyle=0;childLayout=stackLayout;horizontal=1;startSize=30;horizontalStack=0;resizeParent=1;resizeParentMax=0;resizeLast=0;collapsible=1;marginBottom=0;whiteSpace=wrap;html=1;direction=east;rotation=0;container=0;" parent="1" vertex="1">
          <mxGeometry x="-257" y="283" width="140" height="55" as="geometry" />
        </mxCell>
        <mxCell id="uCOVIubWzw-Tb1bmU5YF-66" value="Radmotor" style="swimlane;fontStyle=0;childLayout=stackLayout;horizontal=1;startSize=30;horizontalStack=0;resizeParent=1;resizeParentMax=0;resizeLast=0;collapsible=1;marginBottom=0;whiteSpace=wrap;html=1;direction=east;rotation=0;container=0;" parent="1" vertex="1">
          <mxGeometry x="-207" y="472" width="140" height="120" as="geometry" />
        </mxCell>
        <mxCell id="uCOVIubWzw-Tb1bmU5YF-70" value="Servomotor" style="swimlane;fontStyle=0;childLayout=stackLayout;horizontal=1;startSize=30;horizontalStack=0;resizeParent=1;resizeParentMax=0;resizeLast=0;collapsible=1;marginBottom=0;whiteSpace=wrap;html=1;direction=east;rotation=0;container=0;" parent="1" vertex="1">
          <mxGeometry x="-382" y="420" width="140" height="60" as="geometry" />
        </mxCell>
        <mxCell id="uCOVIubWzw-Tb1bmU5YF-78" value="Radmotor Rechts" style="swimlane;fontStyle=0;childLayout=stackLayout;horizontal=1;startSize=30;horizontalStack=0;resizeParent=1;resizeParentMax=0;resizeLast=0;collapsible=1;marginBottom=0;whiteSpace=wrap;html=1;direction=east;rotation=0;container=0;" parent="1" vertex="1">
          <mxGeometry x="-275" y="656" width="104" height="60" as="geometry" />
        </mxCell>
        <mxCell id="uCOVIubWzw-Tb1bmU5YF-82" value="Radmotor Links" style="swimlane;fontStyle=0;childLayout=stackLayout;horizontal=1;startSize=30;horizontalStack=0;resizeParent=1;resizeParentMax=0;resizeLast=0;collapsible=1;marginBottom=0;whiteSpace=wrap;html=1;direction=east;rotation=0;container=0;" parent="1" vertex="1">
          <mxGeometry x="-119" y="656" width="110" height="60" as="geometry" />
        </mxCell>
        <mxCell id="uCOVIubWzw-Tb1bmU5YF-86" value="" style="endArrow=block;html=1;rounded=0;align=center;verticalAlign=bottom;endFill=0;labelBackgroundColor=none;endSize=8;entryX=0.5;entryY=1;entryDx=0;entryDy=0;" parent="1" target="uCOVIubWzw-Tb1bmU5YF-62" edge="1">
          <mxGeometry relative="1" as="geometry">
            <mxPoint x="-187" y="390" as="sourcePoint" />
            <mxPoint x="-176" y="400" as="targetPoint" />
          </mxGeometry>
        </mxCell>
        <mxCell id="uCOVIubWzw-Tb1bmU5YF-87" value="" style="resizable=0;html=1;align=center;verticalAlign=top;labelBackgroundColor=none;rotation=0;" parent="uCOVIubWzw-Tb1bmU5YF-86" connectable="0" vertex="1">
          <mxGeometry relative="1" as="geometry">
            <mxPoint y="9" as="offset" />
          </mxGeometry>
        </mxCell>
        <mxCell id="uCOVIubWzw-Tb1bmU5YF-88" value="" style="endArrow=none;html=1;rounded=0;exitX=0.5;exitY=0;exitDx=0;exitDy=0;entryX=0.5;entryY=0;entryDx=0;entryDy=0;" parent="1" source="uCOVIubWzw-Tb1bmU5YF-70" target="uCOVIubWzw-Tb1bmU5YF-66" edge="1">
          <mxGeometry width="50" height="50" relative="1" as="geometry">
            <mxPoint x="-103" y="419" as="sourcePoint" />
            <mxPoint x="-53" y="369" as="targetPoint" />
            <Array as="points">
              <mxPoint x="-312" y="390" />
              <mxPoint x="-137" y="390" />
            </Array>
          </mxGeometry>
        </mxCell>
        <mxCell id="uCOVIubWzw-Tb1bmU5YF-89" value="" style="endArrow=block;html=1;rounded=0;align=center;verticalAlign=bottom;endFill=0;labelBackgroundColor=none;endSize=8;entryX=0.5;entryY=1;entryDx=0;entryDy=0;" parent="1" edge="1">
          <mxGeometry relative="1" as="geometry">
            <mxPoint x="-136" y="630" as="sourcePoint" />
            <mxPoint x="-137" y="591" as="targetPoint" />
          </mxGeometry>
        </mxCell>
        <mxCell id="uCOVIubWzw-Tb1bmU5YF-90" value="" style="resizable=0;html=1;align=center;verticalAlign=top;labelBackgroundColor=none;rotation=0;" parent="uCOVIubWzw-Tb1bmU5YF-89" connectable="0" vertex="1">
          <mxGeometry relative="1" as="geometry">
            <mxPoint y="5" as="offset" />
          </mxGeometry>
        </mxCell>
        <mxCell id="uCOVIubWzw-Tb1bmU5YF-91" value="" style="endArrow=none;html=1;rounded=0;exitX=0.468;exitY=-0.002;exitDx=0;exitDy=0;exitPerimeter=0;entryX=0.5;entryY=0;entryDx=0;entryDy=0;" parent="1" source="uCOVIubWzw-Tb1bmU5YF-78" target="uCOVIubWzw-Tb1bmU5YF-82" edge="1">
          <mxGeometry width="50" height="50" relative="1" as="geometry">
            <mxPoint x="-116" y="651" as="sourcePoint" />
            <mxPoint x="-67" y="600" as="targetPoint" />
            <Array as="points">
              <mxPoint x="-226" y="630" />
              <mxPoint x="-64" y="630" />
            </Array>
          </mxGeometry>
        </mxCell>
        <mxCell id="uCOVIubWzw-Tb1bmU5YF-96" value="Ultraschallsensor" style="swimlane;fontStyle=0;childLayout=stackLayout;horizontal=1;startSize=30;horizontalStack=0;resizeParent=1;resizeParentMax=0;resizeLast=0;collapsible=1;marginBottom=0;whiteSpace=wrap;html=1;direction=east;rotation=0;container=0;" parent="1" vertex="1">
          <mxGeometry x="-598" y="645" width="140" height="60" as="geometry" />
        </mxCell>
        <mxCell id="uCOVIubWzw-Tb1bmU5YF-107" value="Sensorik" style="swimlane;fontStyle=0;childLayout=stackLayout;horizontal=1;startSize=30;horizontalStack=0;resizeParent=1;resizeParentMax=0;resizeLast=0;collapsible=1;marginBottom=0;whiteSpace=wrap;html=1;direction=east;rotation=0;container=0;" parent="1" vertex="1">
          <mxGeometry x="-788" y="406" width="140" height="60" as="geometry" />
        </mxCell>
        <mxCell id="uCOVIubWzw-Tb1bmU5YF-111" value="" style="endArrow=block;html=1;rounded=0;align=center;verticalAlign=bottom;endFill=0;labelBackgroundColor=none;endSize=8;entryX=0.5;entryY=1;entryDx=0;entryDy=0;exitX=0;exitY=0.5;exitDx=0;exitDy=0;" parent="1" source="uCOVIubWzw-Tb1bmU5YF-97" target="uCOVIubWzw-Tb1bmU5YF-107" edge="1">
          <mxGeometry relative="1" as="geometry">
            <mxPoint x="-789" y="506" as="sourcePoint" />
            <mxPoint x="-789" y="461" as="targetPoint" />
            <Array as="points">
              <mxPoint x="-719" y="690" />
            </Array>
          </mxGeometry>
        </mxCell>
        <mxCell id="uCOVIubWzw-Tb1bmU5YF-112" value="" style="resizable=0;html=1;align=center;verticalAlign=top;labelBackgroundColor=none;rotation=0;" parent="uCOVIubWzw-Tb1bmU5YF-111" connectable="0" vertex="1">
          <mxGeometry relative="1" as="geometry">
            <mxPoint y="9" as="offset" />
          </mxGeometry>
        </mxCell>
        <mxCell id="uCOVIubWzw-Tb1bmU5YF-113" value="UltraschallsensorLinks" style="swimlane;fontStyle=0;childLayout=stackLayout;horizontal=1;startSize=30;horizontalStack=0;resizeParent=1;resizeParentMax=0;resizeLast=0;collapsible=1;marginBottom=0;whiteSpace=wrap;html=1;rotation=0;container=0;" parent="1" vertex="1">
          <mxGeometry x="-799" y="768" width="140" height="60" as="geometry" />
        </mxCell>
        <mxCell id="uCOVIubWzw-Tb1bmU5YF-117" value="UltraschallsensorVorne" style="swimlane;fontStyle=0;childLayout=stackLayout;horizontal=1;startSize=30;horizontalStack=0;resizeParent=1;resizeParentMax=0;resizeLast=0;collapsible=1;marginBottom=0;whiteSpace=wrap;html=1;direction=east;rotation=0;container=0;" parent="1" vertex="1">
          <mxGeometry x="-597" y="768" width="140" height="60" as="geometry" />
        </mxCell>
        <mxCell id="uCOVIubWzw-Tb1bmU5YF-121" value="UltraschallsensorRechts" style="swimlane;fontStyle=0;childLayout=stackLayout;horizontal=1;startSize=30;horizontalStack=0;resizeParent=1;resizeParentMax=0;resizeLast=0;collapsible=1;marginBottom=0;whiteSpace=wrap;html=1;direction=east;rotation=0;container=0;" parent="1" vertex="1">
          <mxGeometry x="-398" y="769" width="140" height="60" as="geometry" />
        </mxCell>
        <mxCell id="uCOVIubWzw-Tb1bmU5YF-128" value="" style="endArrow=block;html=1;rounded=0;align=center;verticalAlign=bottom;endFill=0;labelBackgroundColor=none;endSize=8;entryX=0.486;entryY=1.056;entryDx=0;entryDy=0;entryPerimeter=0;exitX=0.487;exitY=-0.013;exitDx=0;exitDy=0;exitPerimeter=0;" parent="1" source="uCOVIubWzw-Tb1bmU5YF-117" target="uCOVIubWzw-Tb1bmU5YF-97" edge="1">
          <mxGeometry relative="1" as="geometry">
            <mxPoint x="-530" y="750" as="sourcePoint" />
            <mxPoint x="-533" y="711" as="targetPoint" />
          </mxGeometry>
        </mxCell>
        <mxCell id="uCOVIubWzw-Tb1bmU5YF-129" value="" style="resizable=0;html=1;align=center;verticalAlign=top;labelBackgroundColor=none;rotation=0;" parent="uCOVIubWzw-Tb1bmU5YF-128" connectable="0" vertex="1">
          <mxGeometry relative="1" as="geometry">
            <mxPoint y="3" as="offset" />
          </mxGeometry>
        </mxCell>
        <mxCell id="uCOVIubWzw-Tb1bmU5YF-130" value="" style="endArrow=none;html=1;rounded=0;exitX=0.462;exitY=-0.014;exitDx=0;exitDy=0;exitPerimeter=0;entryX=0.5;entryY=0;entryDx=0;entryDy=0;" parent="1" source="uCOVIubWzw-Tb1bmU5YF-113" target="uCOVIubWzw-Tb1bmU5YF-121" edge="1">
          <mxGeometry width="50" height="50" relative="1" as="geometry">
            <mxPoint x="-628" y="798" as="sourcePoint" />
            <mxPoint x="-579" y="749" as="targetPoint" />
            <Array as="points">
              <mxPoint x="-734" y="739" />
              <mxPoint x="-329" y="739" />
            </Array>
          </mxGeometry>
        </mxCell>
        <mxCell id="uCOVIubWzw-Tb1bmU5YF-133" value="" style="endArrow=none;html=1;rounded=0;entryX=0.498;entryY=0.967;entryDx=0;entryDy=0;entryPerimeter=0;exitX=0.99;exitY=-0.039;exitDx=0;exitDy=0;exitPerimeter=0;" parent="1" source="uCOVIubWzw-Tb1bmU5YF-97" target="uCOVIubWzw-Tb1bmU5YF-71" edge="1">
          <mxGeometry width="50" height="50" relative="1" as="geometry">
            <mxPoint x="-349" y="690" as="sourcePoint" />
            <mxPoint x="-298" y="640" as="targetPoint" />
            <Array as="points">
              <mxPoint x="-313" y="674" />
            </Array>
          </mxGeometry>
        </mxCell>
        <mxCell id="uCOVIubWzw-Tb1bmU5YF-134" value="&amp;lt; dreht" style="edgeLabel;html=1;align=center;verticalAlign=middle;resizable=0;points=[];rotation=0;" parent="uCOVIubWzw-Tb1bmU5YF-133" vertex="1" connectable="0">
          <mxGeometry x="-0.4501" relative="1" as="geometry">
            <mxPoint y="-1" as="offset" />
          </mxGeometry>
        </mxCell>
        <mxCell id="uCOVIubWzw-Tb1bmU5YF-131" value="Raddurchmesser" style="text;strokeColor=none;fillColor=none;align=left;verticalAlign=middle;spacingLeft=4;spacingRight=4;overflow=hidden;points=[[0,0.5],[1,0.5]];portConstraint=eastwest;rotatable=0;whiteSpace=wrap;html=1;rotation=0;" parent="1" vertex="1">
          <mxGeometry x="-207" y="502" width="140" height="30" as="geometry" />
        </mxCell>
        <mxCell id="uCOVIubWzw-Tb1bmU5YF-132" value="Geschwindigkeit" style="text;strokeColor=none;fillColor=none;align=left;verticalAlign=middle;spacingLeft=4;spacingRight=4;overflow=hidden;points=[[0,0.5],[1,0.5]];portConstraint=eastwest;rotatable=0;whiteSpace=wrap;html=1;rotation=0;" parent="1" vertex="1">
          <mxGeometry x="-207" y="532" width="140" height="30" as="geometry" />
        </mxCell>
        <mxCell id="uCOVIubWzw-Tb1bmU5YF-94" value="Spannung" style="text;strokeColor=none;fillColor=none;align=left;verticalAlign=middle;spacingLeft=4;spacingRight=4;overflow=hidden;points=[[0,0.5],[1,0.5]];portConstraint=eastwest;rotatable=0;whiteSpace=wrap;html=1;rotation=0;" parent="1" vertex="1">
          <mxGeometry x="-207" y="562" width="140" height="30" as="geometry" />
        </mxCell>
        <mxCell id="uCOVIubWzw-Tb1bmU5YF-71" value="Spannung" style="text;strokeColor=none;fillColor=none;align=left;verticalAlign=middle;spacingLeft=4;spacingRight=4;overflow=hidden;points=[[0,0.5],[1,0.5]];portConstraint=eastwest;rotatable=0;whiteSpace=wrap;html=1;rotation=0;" parent="1" vertex="1">
          <mxGeometry x="-382" y="450" width="140" height="30" as="geometry" />
        </mxCell>
        <mxCell id="uCOVIubWzw-Tb1bmU5YF-97" value="entfernung" style="text;strokeColor=none;fillColor=none;align=left;verticalAlign=middle;spacingLeft=4;spacingRight=4;overflow=hidden;points=[[0,0.5],[1,0.5]];portConstraint=eastwest;rotatable=0;whiteSpace=wrap;html=1;rotation=0;" parent="1" vertex="1">
          <mxGeometry x="-598" y="675" width="140" height="30" as="geometry" />
        </mxCell>
        <mxCell id="uCOVIubWzw-Tb1bmU5YF-1" value="&lt;span style=&quot;caret-color: rgb(0, 0, 0); color: rgb(0, 0, 0); font-family: Helvetica; font-size: 12px; font-style: normal; font-variant-caps: normal; font-weight: 400; letter-spacing: normal; orphans: auto; text-align: left; text-indent: 0px; text-transform: none; white-space: normal; widows: auto; word-spacing: 0px; -webkit-text-stroke-width: 0px; background-color: rgb(251, 251, 251); text-decoration: none; display: inline !important; float: none;&quot;&gt;Roboter&lt;/span&gt;" style="swimlane;fontStyle=0;childLayout=stackLayout;horizontal=1;startSize=30;horizontalStack=0;resizeParent=1;resizeParentMax=0;resizeLast=0;collapsible=1;marginBottom=0;whiteSpace=wrap;html=1;" parent="1" vertex="1">
          <mxGeometry x="47" y="150" width="140" height="60" as="geometry" />
        </mxCell>
        <mxCell id="R853mmkm-2pQnhAkUfJ0-40" value="realPosition" style="text;strokeColor=none;fillColor=none;align=left;verticalAlign=middle;spacingLeft=4;spacingRight=4;overflow=hidden;points=[[0,0.5],[1,0.5]];portConstraint=eastwest;rotatable=0;whiteSpace=wrap;html=1;" parent="uCOVIubWzw-Tb1bmU5YF-1" vertex="1">
          <mxGeometry y="30" width="140" height="30" as="geometry" />
        </mxCell>
        <mxCell id="uCOVIubWzw-Tb1bmU5YF-5" value="Labyrinth" style="swimlane;fontStyle=0;childLayout=stackLayout;horizontal=1;startSize=30;horizontalStack=0;resizeParent=1;resizeParentMax=0;resizeLast=0;collapsible=1;marginBottom=0;whiteSpace=wrap;html=1;" parent="1" vertex="1">
          <mxGeometry x="285" y="150" width="140" height="60" as="geometry" />
        </mxCell>
        <mxCell id="uCOVIubWzw-Tb1bmU5YF-9" value="Segmente" style="swimlane;fontStyle=0;childLayout=stackLayout;horizontal=1;startSize=30;horizontalStack=0;resizeParent=1;resizeParentMax=0;resizeLast=0;collapsible=1;marginBottom=0;whiteSpace=wrap;html=1;" parent="1" vertex="1">
          <mxGeometry x="285" y="370" width="140" height="60" as="geometry" />
        </mxCell>
        <mxCell id="uCOVIubWzw-Tb1bmU5YF-10" value="seitenlange" style="text;strokeColor=none;fillColor=none;align=left;verticalAlign=middle;spacingLeft=4;spacingRight=4;overflow=hidden;points=[[0,0.5],[1,0.5]];portConstraint=eastwest;rotatable=0;whiteSpace=wrap;html=1;" parent="uCOVIubWzw-Tb1bmU5YF-9" vertex="1">
          <mxGeometry y="30" width="140" height="30" as="geometry" />
        </mxCell>
        <mxCell id="uCOVIubWzw-Tb1bmU5YF-13" value="Seite" style="swimlane;fontStyle=0;childLayout=stackLayout;horizontal=1;startSize=30;horizontalStack=0;resizeParent=1;resizeParentMax=0;resizeLast=0;collapsible=1;marginBottom=0;whiteSpace=wrap;html=1;" parent="1" vertex="1">
          <mxGeometry x="45" y="590" width="140" height="60" as="geometry" />
        </mxCell>
        <mxCell id="uCOVIubWzw-Tb1bmU5YF-45" value="laengeSeiteA" style="text;strokeColor=none;fillColor=none;align=left;verticalAlign=middle;spacingLeft=4;spacingRight=4;overflow=hidden;points=[[0,0.5],[1,0.5]];portConstraint=eastwest;rotatable=0;whiteSpace=wrap;html=1;" parent="uCOVIubWzw-Tb1bmU5YF-13" vertex="1">
          <mxGeometry y="30" width="140" height="30" as="geometry" />
        </mxCell>
        <mxCell id="uCOVIubWzw-Tb1bmU5YF-17" value="Position" style="swimlane;fontStyle=0;childLayout=stackLayout;horizontal=1;startSize=30;horizontalStack=0;resizeParent=1;resizeParentMax=0;resizeLast=0;collapsible=1;marginBottom=0;whiteSpace=wrap;html=1;" parent="1" vertex="1">
          <mxGeometry x="312" y="589" width="140" height="60" as="geometry" />
        </mxCell>
        <mxCell id="uCOVIubWzw-Tb1bmU5YF-18" value="&lt;div&gt;&lt;br&gt;&lt;/div&gt;" style="text;strokeColor=none;fillColor=none;align=left;verticalAlign=middle;spacingLeft=4;spacingRight=4;overflow=hidden;points=[[0,0.5],[1,0.5]];portConstraint=eastwest;rotatable=0;whiteSpace=wrap;html=1;" parent="uCOVIubWzw-Tb1bmU5YF-17" vertex="1">
          <mxGeometry y="30" width="140" height="30" as="geometry" />
        </mxCell>
        <mxCell id="uCOVIubWzw-Tb1bmU5YF-21" value="Wand" style="swimlane;fontStyle=0;childLayout=stackLayout;horizontal=1;startSize=30;horizontalStack=0;resizeParent=1;resizeParentMax=0;resizeLast=0;collapsible=1;marginBottom=0;whiteSpace=wrap;html=1;" parent="1" vertex="1">
          <mxGeometry x="44" y="760" width="140" height="60" as="geometry" />
        </mxCell>
        <mxCell id="uCOVIubWzw-Tb1bmU5YF-25" value="" style="endArrow=none;html=1;rounded=0;entryX=0.486;entryY=1.133;entryDx=0;entryDy=0;entryPerimeter=0;exitX=0.5;exitY=0;exitDx=0;exitDy=0;" parent="1" source="uCOVIubWzw-Tb1bmU5YF-21" edge="1">
          <mxGeometry width="50" height="50" relative="1" as="geometry">
            <mxPoint x="75" y="720" as="sourcePoint" />
            <mxPoint x="113.03999999999996" y="653.99" as="targetPoint" />
          </mxGeometry>
        </mxCell>
        <mxCell id="uCOVIubWzw-Tb1bmU5YF-26" value="hat v" style="edgeLabel;html=1;align=center;verticalAlign=middle;resizable=0;points=[];" parent="uCOVIubWzw-Tb1bmU5YF-25" vertex="1" connectable="0">
          <mxGeometry x="-0.0011" y="-3" relative="1" as="geometry">
            <mxPoint x="-13" as="offset" />
          </mxGeometry>
        </mxCell>
        <mxCell id="uCOVIubWzw-Tb1bmU5YF-27" value="1" style="text;html=1;align=center;verticalAlign=middle;resizable=0;points=[];autosize=1;strokeColor=none;fillColor=none;" parent="1" vertex="1">
          <mxGeometry x="85" y="648" width="30" height="30" as="geometry" />
        </mxCell>
        <mxCell id="uCOVIubWzw-Tb1bmU5YF-28" value="0...1" style="text;html=1;align=center;verticalAlign=middle;resizable=0;points=[];autosize=1;strokeColor=none;fillColor=none;" parent="1" vertex="1">
          <mxGeometry x="75" y="730" width="50" height="30" as="geometry" />
        </mxCell>
        <mxCell id="uCOVIubWzw-Tb1bmU5YF-46" value="StartSegment" style="swimlane;fontStyle=0;childLayout=stackLayout;horizontal=1;startSize=30;horizontalStack=0;resizeParent=1;resizeParentMax=0;resizeLast=0;collapsible=1;marginBottom=0;whiteSpace=wrap;html=1;" parent="1" vertex="1">
          <mxGeometry x="646" y="450" width="140" height="60" as="geometry" />
        </mxCell>
        <mxCell id="uCOVIubWzw-Tb1bmU5YF-50" value="Endsegment" style="swimlane;fontStyle=0;childLayout=stackLayout;horizontal=1;startSize=30;horizontalStack=0;resizeParent=1;resizeParentMax=0;resizeLast=0;collapsible=1;marginBottom=0;whiteSpace=wrap;html=1;" parent="1" vertex="1">
          <mxGeometry x="646" y="335" width="140" height="60" as="geometry" />
        </mxCell>
        <mxCell id="uCOVIubWzw-Tb1bmU5YF-55" value="" style="endArrow=block;html=1;rounded=0;align=center;verticalAlign=bottom;endFill=0;labelBackgroundColor=none;endSize=8;entryX=1.007;entryY=0.867;entryDx=0;entryDy=0;entryPerimeter=0;" parent="1" target="uCOVIubWzw-Tb1bmU5YF-10" edge="1">
          <mxGeometry relative="1" as="geometry">
            <mxPoint x="560" y="426" as="sourcePoint" />
            <mxPoint x="755" y="310" as="targetPoint" />
          </mxGeometry>
        </mxCell>
        <mxCell id="uCOVIubWzw-Tb1bmU5YF-56" value="" style="resizable=0;html=1;align=center;verticalAlign=top;labelBackgroundColor=none;" parent="uCOVIubWzw-Tb1bmU5YF-55" connectable="0" vertex="1">
          <mxGeometry relative="1" as="geometry" />
        </mxCell>
        <mxCell id="R853mmkm-2pQnhAkUfJ0-6" value="" style="endArrow=none;html=1;rounded=0;exitX=0.5;exitY=0;exitDx=0;exitDy=0;entryX=0.5;entryY=1;entryDx=0;entryDy=0;" parent="1" source="uCOVIubWzw-Tb1bmU5YF-9" target="uCOVIubWzw-Tb1bmU5YF-5" edge="1">
          <mxGeometry width="50" height="50" relative="1" as="geometry">
            <mxPoint x="291" y="330" as="sourcePoint" />
            <mxPoint x="351" y="210" as="targetPoint" />
          </mxGeometry>
        </mxCell>
        <mxCell id="R853mmkm-2pQnhAkUfJ0-7" value="besteht aus v" style="edgeLabel;html=1;align=center;verticalAlign=middle;resizable=0;points=[];" parent="R853mmkm-2pQnhAkUfJ0-6" vertex="1" connectable="0">
          <mxGeometry x="0.2063" relative="1" as="geometry">
            <mxPoint x="-30" as="offset" />
          </mxGeometry>
        </mxCell>
        <mxCell id="R853mmkm-2pQnhAkUfJ0-8" value="" style="endArrow=none;html=1;rounded=0;entryX=0;entryY=0.5;entryDx=0;entryDy=0;exitX=1;exitY=0.5;exitDx=0;exitDy=0;" parent="1" source="uCOVIubWzw-Tb1bmU5YF-1" target="uCOVIubWzw-Tb1bmU5YF-5" edge="1">
          <mxGeometry width="50" height="50" relative="1" as="geometry">
            <mxPoint x="140" y="320" as="sourcePoint" />
            <mxPoint x="190" y="270" as="targetPoint" />
          </mxGeometry>
        </mxCell>
        <mxCell id="R853mmkm-2pQnhAkUfJ0-9" value="fährt &amp;gt;" style="edgeLabel;html=1;align=center;verticalAlign=middle;resizable=0;points=[];" parent="R853mmkm-2pQnhAkUfJ0-8" vertex="1" connectable="0">
          <mxGeometry x="-0.1037" relative="1" as="geometry">
            <mxPoint x="3" y="-1" as="offset" />
          </mxGeometry>
        </mxCell>
        <mxCell id="R853mmkm-2pQnhAkUfJ0-34" value="" style="endArrow=none;html=1;rounded=0;entryX=0.5;entryY=1;entryDx=0;entryDy=0;exitX=0.5;exitY=0;exitDx=0;exitDy=0;" parent="1" source="uCOVIubWzw-Tb1bmU5YF-96" target="uCOVIubWzw-Tb1bmU5YF-58" edge="1">
          <mxGeometry width="50" height="50" relative="1" as="geometry">
            <mxPoint x="-590" y="630" as="sourcePoint" />
            <mxPoint x="-540" y="580" as="targetPoint" />
          </mxGeometry>
        </mxCell>
        <mxCell id="R853mmkm-2pQnhAkUfJ0-35" value="verarbeitet v" style="edgeLabel;html=1;align=center;verticalAlign=middle;resizable=0;points=[];" parent="R853mmkm-2pQnhAkUfJ0-34" vertex="1" connectable="0">
          <mxGeometry x="0.085" y="-2" relative="1" as="geometry">
            <mxPoint x="-30" as="offset" />
          </mxGeometry>
        </mxCell>
        <mxCell id="R853mmkm-2pQnhAkUfJ0-36" value="" style="endArrow=none;html=1;rounded=0;exitX=1;exitY=0.75;exitDx=0;exitDy=0;entryX=0;entryY=0.5;entryDx=0;entryDy=0;" parent="1" source="uCOVIubWzw-Tb1bmU5YF-58" target="uCOVIubWzw-Tb1bmU5YF-131" edge="1">
          <mxGeometry width="50" height="50" relative="1" as="geometry">
            <mxPoint x="-410" y="590" as="sourcePoint" />
            <mxPoint x="-360" y="540" as="targetPoint" />
          </mxGeometry>
        </mxCell>
        <mxCell id="R853mmkm-2pQnhAkUfJ0-37" value="steuert &amp;gt;" style="edgeLabel;html=1;align=center;verticalAlign=middle;resizable=0;points=[];" parent="R853mmkm-2pQnhAkUfJ0-36" vertex="1" connectable="0">
          <mxGeometry x="-0.4546" relative="1" as="geometry">
            <mxPoint y="-1" as="offset" />
          </mxGeometry>
        </mxCell>
        <mxCell id="R853mmkm-2pQnhAkUfJ0-38" value="" style="endArrow=none;html=1;rounded=0;entryX=0;entryY=0.5;entryDx=0;entryDy=0;exitX=1;exitY=0.5;exitDx=0;exitDy=0;" parent="1" source="uCOVIubWzw-Tb1bmU5YF-58" target="uCOVIubWzw-Tb1bmU5YF-71" edge="1">
          <mxGeometry width="50" height="50" relative="1" as="geometry">
            <mxPoint x="-440" y="500" as="sourcePoint" />
            <mxPoint x="-390" y="460" as="targetPoint" />
            <Array as="points">
              <mxPoint x="-440" y="487" />
              <mxPoint x="-440" y="465" />
            </Array>
          </mxGeometry>
        </mxCell>
        <mxCell id="R853mmkm-2pQnhAkUfJ0-39" value="steuert &amp;gt;" style="edgeLabel;html=1;align=center;verticalAlign=middle;resizable=0;points=[];" parent="R853mmkm-2pQnhAkUfJ0-38" vertex="1" connectable="0">
          <mxGeometry x="0.3401" relative="1" as="geometry">
            <mxPoint y="-1" as="offset" />
          </mxGeometry>
        </mxCell>
        <mxCell id="R853mmkm-2pQnhAkUfJ0-41" value="" style="endArrow=none;html=1;rounded=0;entryX=0;entryY=0.5;entryDx=0;entryDy=0;exitX=0;exitY=0.5;exitDx=0;exitDy=0;" parent="1" source="uCOVIubWzw-Tb1bmU5YF-46" target="uCOVIubWzw-Tb1bmU5YF-50" edge="1">
          <mxGeometry width="50" height="50" relative="1" as="geometry">
            <mxPoint x="570" y="480" as="sourcePoint" />
            <mxPoint x="620" y="430" as="targetPoint" />
            <Array as="points">
              <mxPoint x="560" y="480" />
              <mxPoint x="560" y="365" />
            </Array>
          </mxGeometry>
        </mxCell>
        <mxCell id="R853mmkm-2pQnhAkUfJ0-42" value="1" style="text;html=1;align=center;verticalAlign=middle;resizable=0;points=[];autosize=1;strokeColor=none;fillColor=none;" parent="1" vertex="1">
          <mxGeometry x="-549" y="540" width="30" height="30" as="geometry" />
        </mxCell>
        <mxCell id="R853mmkm-2pQnhAkUfJ0-43" value="3" style="text;html=1;align=center;verticalAlign=middle;resizable=0;points=[];autosize=1;strokeColor=none;fillColor=none;" parent="1" vertex="1">
          <mxGeometry x="-551" y="620" width="30" height="30" as="geometry" />
        </mxCell>
        <mxCell id="R853mmkm-2pQnhAkUfJ0-44" value="1" style="text;html=1;align=center;verticalAlign=middle;resizable=0;points=[];autosize=1;strokeColor=none;fillColor=none;" parent="1" vertex="1">
          <mxGeometry x="-336" y="474" width="30" height="30" as="geometry" />
        </mxCell>
        <mxCell id="R853mmkm-2pQnhAkUfJ0-45" value="3" style="text;html=1;align=center;verticalAlign=middle;resizable=0;points=[];autosize=1;strokeColor=none;fillColor=none;" parent="1" vertex="1">
          <mxGeometry x="-466" y="649" width="30" height="30" as="geometry" />
        </mxCell>
        <mxCell id="R853mmkm-2pQnhAkUfJ0-46" value="1" style="text;html=1;align=center;verticalAlign=middle;resizable=0;points=[];autosize=1;strokeColor=none;fillColor=none;" parent="1" vertex="1">
          <mxGeometry x="-466" y="494" width="30" height="30" as="geometry" />
        </mxCell>
        <mxCell id="R853mmkm-2pQnhAkUfJ0-47" value="2" style="text;html=1;align=center;verticalAlign=middle;resizable=0;points=[];autosize=1;strokeColor=none;fillColor=none;" parent="1" vertex="1">
          <mxGeometry x="-234" y="493" width="30" height="30" as="geometry" />
        </mxCell>
        <mxCell id="R853mmkm-2pQnhAkUfJ0-48" value="1" style="text;html=1;align=center;verticalAlign=middle;resizable=0;points=[];autosize=1;strokeColor=none;fillColor=none;" parent="1" vertex="1">
          <mxGeometry x="-465" y="463" width="30" height="30" as="geometry" />
        </mxCell>
        <mxCell id="R853mmkm-2pQnhAkUfJ0-49" value="1" style="text;html=1;align=center;verticalAlign=middle;resizable=0;points=[];autosize=1;strokeColor=none;fillColor=none;" parent="1" vertex="1">
          <mxGeometry x="-405" y="440" width="30" height="30" as="geometry" />
        </mxCell>
        <mxCell id="WN3VsQS2lUikd_3-6ee6-1" value="" style="endArrow=none;html=1;rounded=0;entryX=0.52;entryY=0.993;entryDx=0;entryDy=0;entryPerimeter=0;exitX=0;exitY=0.5;exitDx=0;exitDy=0;" edge="1" parent="1" source="uCOVIubWzw-Tb1bmU5YF-10" target="R853mmkm-2pQnhAkUfJ0-40">
          <mxGeometry width="50" height="50" relative="1" as="geometry">
            <mxPoint x="70" y="400" as="sourcePoint" />
            <mxPoint x="120" y="350" as="targetPoint" />
            <Array as="points">
              <mxPoint x="120" y="415" />
            </Array>
          </mxGeometry>
        </mxCell>
        <mxCell id="WN3VsQS2lUikd_3-6ee6-2" value="befindet sich auf &amp;gt;" style="edgeLabel;html=1;align=center;verticalAlign=middle;resizable=0;points=[];" vertex="1" connectable="0" parent="WN3VsQS2lUikd_3-6ee6-1">
          <mxGeometry x="-0.4208" relative="1" as="geometry">
            <mxPoint x="7" y="-1" as="offset" />
          </mxGeometry>
        </mxCell>
        <mxCell id="WN3VsQS2lUikd_3-6ee6-3" value="" style="endArrow=none;html=1;rounded=0;entryX=0.243;entryY=0.989;entryDx=0;entryDy=0;entryPerimeter=0;exitX=0.5;exitY=0;exitDx=0;exitDy=0;" edge="1" parent="1" source="uCOVIubWzw-Tb1bmU5YF-13" target="uCOVIubWzw-Tb1bmU5YF-10">
          <mxGeometry width="50" height="50" relative="1" as="geometry">
            <mxPoint x="130" y="520" as="sourcePoint" />
            <mxPoint x="180" y="470" as="targetPoint" />
            <Array as="points">
              <mxPoint x="115" y="470" />
              <mxPoint x="319" y="470" />
            </Array>
          </mxGeometry>
        </mxCell>
        <mxCell id="WN3VsQS2lUikd_3-6ee6-4" value="&amp;lt; besteht aus" style="edgeLabel;html=1;align=center;verticalAlign=middle;resizable=0;points=[];" vertex="1" connectable="0" parent="WN3VsQS2lUikd_3-6ee6-3">
          <mxGeometry x="0.1565" relative="1" as="geometry">
            <mxPoint y="-1" as="offset" />
          </mxGeometry>
        </mxCell>
        <mxCell id="WN3VsQS2lUikd_3-6ee6-5" value="" style="endArrow=none;html=1;rounded=0;entryX=0.69;entryY=1.033;entryDx=0;entryDy=0;entryPerimeter=0;exitX=0.5;exitY=0;exitDx=0;exitDy=0;" edge="1" parent="1" source="uCOVIubWzw-Tb1bmU5YF-17" target="uCOVIubWzw-Tb1bmU5YF-10">
          <mxGeometry width="50" height="50" relative="1" as="geometry">
            <mxPoint x="370" y="560" as="sourcePoint" />
            <mxPoint x="420" y="510" as="targetPoint" />
          </mxGeometry>
        </mxCell>
        <mxCell id="WN3VsQS2lUikd_3-6ee6-6" value="hat v" style="edgeLabel;html=1;align=center;verticalAlign=middle;resizable=0;points=[];" vertex="1" connectable="0" parent="WN3VsQS2lUikd_3-6ee6-5">
          <mxGeometry x="0.097" y="1" relative="1" as="geometry">
            <mxPoint x="-9" as="offset" />
          </mxGeometry>
        </mxCell>
      </root>
    </mxGraphModel>
  </diagram>
</mxfile>
